<svg width="238" height="238" viewBox="0 0 238 238" xmlns="http://www.w3.org/2000/svg"><title>Artboard 2 Copy 3</title><path d="M36.1 8.814c1.715.98 4.959 1.347 9.733 1.102 4.775-.245 10.651-.796 17.63-1.652 6.977-.857 14.69-1.837 23.137-2.939 8.447-1.101 26.627-3.121 26.627-3.121L131.59.734s6.795-.428 10.1-.55A263.01 263.01 0 0 1 151.423 0c9.549 0 18.424.612 26.627 1.836 8.202 1.225 15.364 3.428 21.485 6.611C212.512 15.303 219 24.607 219 36.36c0 5.877-1.53 12.181-4.59 18.915-3.061 6.733-7.407 13.65-13.039 20.75a131.384 131.384 0 0 1-19.832 20.567c-7.346 6.121-14.752 11.508-22.22 16.16-7.468 4.652-14.813 8.57-22.036 11.753-7.223 3.183-13.65 5.631-19.282 7.345.98 7.1 3.857 15.854 8.631 26.26a229.513 229.513 0 0 0 16.527 29.932c6.244 9.549 12.61 17.506 19.098 23.872 6.489 6.366 12.181 8.937 17.078 7.713 2.938-.735 4.713-.612 5.326.367.612.98.306 2.449-.919 4.407-.979 1.47-2.57 3.122-4.774 4.958-2.204 1.837-4.836 3.49-7.896 4.959-3.061 1.469-6.489 2.57-10.284 3.305-3.795.734-7.774.857-11.936.367-3.918-.49-8.141-3-12.67-7.529-4.53-4.53-8.999-10.283-13.406-17.261s-8.63-14.691-12.67-23.138c-4.04-8.447-7.469-16.71-10.284-24.79-2.816-8.08-5.02-15.487-6.611-22.22-1.592-6.734-2.142-11.937-1.653-15.61 0-1.223.49-2.815 1.47-4.774l-.735-2.203a3757.387 3757.387 0 0 1-16.71 36.543c-5.51 11.875-10.407 22.648-14.692 32.32-4.284 9.67-7.773 17.812-10.467 24.423-2.693 6.61-4.04 10.773-4.04 12.487-.244 2.693-1.958 3.978-5.141 3.856-3.183-.122-6.55-1.285-10.1-3.49-3.55-2.203-6.672-5.263-9.366-9.18-2.693-3.918-3.427-8.325-2.203-13.222.49-2.204 2.265-6.734 5.325-13.59 3.06-6.855 6.856-15.18 11.386-24.973 4.53-9.794 9.61-20.506 15.241-32.136A8733.65 8733.65 0 0 1 68.788 98.06a4369.563 4369.563 0 0 0 17.078-35.257c5.509-11.508 10.344-21.791 14.507-30.85-12.243 3.917-23.322 7.161-33.238 9.732-9.916 2.57-17.2 3.122-21.852 1.653-3.183-.98-5.815-3.55-7.897-7.713-2.08-4.162-3.55-8.447-4.407-12.854-.857-4.408-1.04-8.142-.55-11.202.489-3.06 1.713-3.979 3.672-2.755zm63.17 96.592c3.429.245 8.448-.918 15.059-3.49 6.61-2.57 13.711-5.998 21.301-10.283 7.59-4.285 14.997-9.181 22.22-14.69 7.223-5.51 13.16-11.08 17.812-16.711 4.408-5.387 8.203-10.835 11.386-16.344s4.774-10.467 4.774-14.874c0-3.183-.98-5.876-2.938-8.08-1.959-2.203-5.386-3.795-10.283-4.774-4.897-.98-10.774-.918-17.63.183-6.855 1.102-14.323 2.632-22.403 4.591-1.469 3.428-3.55 8.019-6.243 13.773a2964.25 2964.25 0 0 0-9.182 19.832 5637.847 5637.847 0 0 1-11.201 24.24 1667.258 1667.258 0 0 1-12.671 26.627z" fill="#1E262D" fill-rule="evenodd"/></svg>