<?xml version="1.0" encoding="UTF-8"?>
<svg width="321px" height="86px" viewBox="0 0 321 86" version="1.1" xmlns="http://www.w3.org/2000/svg" xmlns:xlink="http://www.w3.org/1999/xlink">
    <!-- Generator: Sketch 41.2 (35397) - http://www.bohemiancoding.com/sketch -->
    <title>RyanLuuLogo</title>
    <desc>Created with Sketch.</desc>
    <defs></defs>
    <g id="Page-1" stroke="none" stroke-width="1" fill="none" fill-rule="evenodd">
        <g id="Artboard-2-Copy" transform="translate(-58.000000, -144.000000)" fill="#FFFFFF">
            <g id="RyanLuuLogo" transform="translate(58.000000, 144.000000)">
                <path d="M298.65,30.1 C299.050002,29.499997 299.716662,29.266666 300.65,29.4 C301.583338,29.533334 302.466663,29.8499975 303.3,30.35 C304.133338,30.8500025 304.833331,31.499996 305.4,32.3 C305.96667,33.100004 306.116668,33.83333 305.85,34.5 C305.649999,34.966669 305.26667,35.799994 304.7,37 C304.133331,38.200006 303.466671,39.6166585 302.7,41.25 C301.93333,42.8833415 301.150004,44.599991 300.35,46.4 C299.549996,48.200009 298.800004,49.8833255 298.1,51.45 C297.399997,53.0166745 296.833336,54.399994 296.4,55.6 C295.966665,56.800006 295.75,57.599998 295.75,58 C295.75,58.400002 296.233329,58.233337 297.2,57.5 C298.166672,56.766663 299.36666,55.6833405 300.8,54.25 C302.233341,52.8166595 303.833325,51.1500095 305.6,49.25 C307.366676,47.3499905 309.083325,45.40001 310.75,43.4 C312.416675,41.39999 313.933327,39.4833425 315.3,37.65 C316.666674,35.8166575 317.68333,34.266673 318.35,33 C318.550001,32.666665 318.799999,32.5166665 319.1,32.55 C319.400002,32.5833335 319.666666,32.7499985 319.9,33.05 C320.133335,33.3500015 320.3,33.799997 320.4,34.4 C320.500001,35.000003 320.416668,35.666663 320.15,36.4 C320.016666,36.933336 319.500005,37.833327 318.6,39.1 C317.699996,40.366673 316.58334,41.8499915 315.25,43.55 C313.91666,45.2500085 312.416675,47.0499905 310.75,48.95 C309.083325,50.8500095 307.416675,52.7166575 305.75,54.55 C304.083325,56.3833425 302.466675,58.0833255 300.9,59.65 C299.333326,61.2166745 297.950006,62.499995 296.75,63.5 C295.816662,64.300004 294.716673,64.7 293.45,64.7 C292.516662,64.7 291.566672,64.5166685 290.6,64.15 C289.633329,63.7833315 288.766671,63.300003 288,62.7 C287.23333,62.099997 286.616669,61.433337 286.15,60.7 C285.683331,59.966663 285.516666,59.26667 285.65,58.6 C285.716667,58.133331 286.033331,57.1500075 286.6,55.65 C287.16667,54.1499925 287.916662,52.40001 288.85,50.4 C287.049991,53.06668 284.766681,55.8499855 282,58.75 C279.23332,61.6500145 276.050018,64.09999 272.45,66.1 C271.849997,66.433335 271.083338,66.500001 270.15,66.3 C269.216662,66.099999 268.316671,65.700003 267.45,65.1 C266.583329,64.499997 265.86667,63.800004 265.3,63 C264.733331,62.199996 264.483333,61.366671 264.55,60.5 C264.616667,59.433328 264.966664,57.966676 265.6,56.1 C266.233337,54.233324 266.983329,52.200011 267.85,50 C268.716671,47.799989 269.666662,45.5500115 270.7,43.25 C271.733339,40.9499885 272.716662,38.8166765 273.65,36.85 C274.583338,34.8833235 275.399997,33.2166735 276.1,31.85 C276.800004,30.4833265 277.249999,29.633335 277.45,29.3 C277.783335,28.833331 278.399996,28.6833325 279.3,28.85 C280.200005,29.0166675 281.099996,29.333331 282,29.8 C282.900005,30.266669 283.649997,30.799997 284.25,31.4 C284.850003,32.000003 285.016668,32.533331 284.75,33 C284.483332,33.400002 283.983337,34.299993 283.25,35.7 C282.516663,37.100007 281.683338,38.7499905 280.75,40.65 C279.816662,42.5500095 278.866672,44.5499895 277.9,46.65 C276.933329,48.7500105 276.100004,50.699991 275.4,52.5 C274.699996,54.300009 274.166669,55.8166605 273.8,57.05 C273.433332,58.2833395 273.416665,58.966666 273.75,59.1 C274.283336,59.366668 275.099995,59.1166705 276.2,58.35 C277.300006,57.5833295 278.533327,56.5166735 279.9,55.15 C281.266674,53.7833265 282.716659,52.2500085 284.25,50.55 C285.783341,48.8499915 287.21666,47.166675 288.55,45.5 C289.88334,43.833325 291.066662,42.2833405 292.1,40.85 C293.133339,39.4166595 293.883331,38.333337 294.35,37.6 C295.616673,35.399989 296.58333,33.6833395 297.25,32.45 C297.91667,31.2166605 298.383332,30.433335 298.65,30.1 Z" id="Path"></path>
                <path d="M256.75,30.1 C257.150002,29.499997 257.816662,29.266666 258.75,29.4 C259.683338,29.533334 260.566662,29.8499975 261.4,30.35 C262.233338,30.8500025 262.93333,31.499996 263.5,32.3 C264.06667,33.100004 264.216668,33.83333 263.95,34.5 C263.749999,34.966669 263.36667,35.799994 262.8,37 C262.233331,38.200006 261.566671,39.6166585 260.8,41.25 C260.033329,42.8833415 259.250004,44.599991 258.45,46.4 C257.649996,48.200009 256.900003,49.8833255 256.2,51.45 C255.499996,53.0166745 254.933335,54.399994 254.5,55.6 C254.066664,56.800006 253.85,57.599998 253.85,58 C253.85,58.400002 254.333328,58.233337 255.3,57.5 C256.266672,56.766663 257.466659,55.6833405 258.9,54.25 C260.333341,52.8166595 261.933324,51.1500095 263.7,49.25 C265.466676,47.3499905 267.183325,45.40001 268.85,43.4 C270.516675,41.39999 272.033326,39.4833425 273.4,37.65 C274.766673,35.8166575 275.78333,34.266673 276.45,33 C276.650001,32.666665 276.899998,32.5166665 277.2,32.55 C277.500001,32.5833335 277.766665,32.7499985 278,33.05 C278.233335,33.3500015 278.399999,33.799997 278.5,34.4 C278.6,35.000003 278.516668,35.666663 278.25,36.4 C278.116666,36.933336 277.600005,37.833327 276.7,39.1 C275.799995,40.366673 274.68334,41.8499915 273.35,43.55 C272.01666,45.2500085 270.516675,47.0499905 268.85,48.95 C267.183325,50.8500095 265.516675,52.7166575 263.85,54.55 C262.183325,56.3833425 260.566675,58.0833255 259,59.65 C257.433325,61.2166745 256.050006,62.499995 254.85,63.5 C253.916662,64.300004 252.816673,64.7 251.55,64.7 C250.616662,64.7 249.666671,64.5166685 248.7,64.15 C247.733328,63.7833315 246.86667,63.300003 246.1,62.7 C245.333329,62.099997 244.716669,61.433337 244.25,60.7 C243.783331,59.966663 243.616666,59.26667 243.75,58.6 C243.816667,58.133331 244.13333,57.1500075 244.7,55.65 C245.26667,54.1499925 246.016662,52.40001 246.95,50.4 C245.149991,53.06668 242.866681,55.8499855 240.1,58.75 C237.333319,61.6500145 234.150018,64.09999 230.55,66.1 C229.949997,66.433335 229.183338,66.500001 228.25,66.3 C227.316662,66.099999 226.416671,65.700003 225.55,65.1 C224.683329,64.499997 223.966669,63.800004 223.4,63 C222.83333,62.199996 222.583333,61.366671 222.65,60.5 C222.716667,59.433328 223.066663,57.966676 223.7,56.1 C224.333336,54.233324 225.083329,52.200011 225.95,50 C226.816671,47.799989 227.766661,45.5500115 228.8,43.25 C229.833338,40.9499885 230.816662,38.8166765 231.75,36.85 C232.683338,34.8833235 233.499996,33.2166735 234.2,31.85 C234.900003,30.4833265 235.349999,29.633335 235.55,29.3 C235.883335,28.833331 236.499995,28.6833325 237.4,28.85 C238.300004,29.0166675 239.199995,29.333331 240.1,29.8 C241.000005,30.266669 241.749997,30.799997 242.35,31.4 C242.950003,32.000003 243.116668,32.533331 242.85,33 C242.583332,33.400002 242.083337,34.299993 241.35,35.7 C240.616663,37.100007 239.783338,38.7499905 238.85,40.65 C237.916662,42.5500095 236.966671,44.5499895 236,46.65 C235.033329,48.7500105 234.200003,50.699991 233.5,52.5 C232.799996,54.300009 232.266668,55.8166605 231.9,57.05 C231.533332,58.2833395 231.516665,58.966666 231.85,59.1 C232.383336,59.366668 233.199994,59.1166705 234.3,58.35 C235.400005,57.5833295 236.633326,56.5166735 238,55.15 C239.366674,53.7833265 240.816659,52.2500085 242.35,50.55 C243.883341,48.8499915 245.31666,47.166675 246.65,45.5 C247.98334,43.833325 249.166662,42.2833405 250.2,40.85 C251.233338,39.4166595 251.983331,38.333337 252.45,37.6 C253.716673,35.399989 254.68333,33.6833395 255.35,32.45 C256.01667,31.2166605 256.483332,30.433335 256.75,30.1 Z" id="Path"></path>
                <path d="M198.25,62.4 C197.716664,63.400005 197.216669,64.299996 196.75,65.1 C196.283331,65.833337 195.816669,66.53333 195.35,67.2 C194.883331,67.86667 194.383336,68.333332 193.85,68.6 C193.249997,68.933335 192.483338,68.7833365 191.55,68.15 C190.616662,67.5166635 189.700005,66.6500055 188.8,65.55 C187.899996,64.4499945 187.11667,63.266673 186.45,62 C185.78333,60.733327 185.383334,59.633338 185.25,58.7 C185.116666,57.36666 185.216665,56.4500025 185.55,55.95 C185.883335,55.4499975 186.549995,55.2 187.55,55.2 C188.283337,55.2 189.416659,55.366665 190.95,55.7 C192.016672,53.566656 193.116661,50.9500155 194.25,47.85 C195.383339,44.7499845 196.566661,41.4500175 197.8,37.95 C199.03334,34.4499825 200.31666,30.8833515 201.65,27.25 C202.98334,23.6166485 204.349993,20.2166825 205.75,17.05 C207.150007,13.8833175 208.599993,11.066679 210.1,8.6 C211.600008,6.133321 213.116659,4.300006 214.65,3.1 C215.783339,2.233329 216.916661,1.633335 218.05,1.3 C219.183339,0.966665 220.316661,0.8 221.45,0.8 C222.850007,0.8 224.199994,1.0166645 225.5,1.45 C226.800007,1.8833355 227.999995,2.4499965 229.1,3.15 C230.200005,3.8500035 227.050002,6.000001 226.65,5.8 C225.249993,5.13333 223.750008,5.533326 222.15,7 C220.549992,8.466674 218.950008,10.6499855 217.35,13.55 C215.749992,16.4500145 214.150008,19.833314 212.55,23.7 C210.949992,27.566686 209.383341,31.533313 207.85,35.6 C206.316659,39.666687 204.850007,43.633314 203.45,47.5 C202.049993,51.366686 200.783339,54.733319 199.65,57.6 C201.716677,58.000002 204.249985,58.366665 207.25,58.7 C210.250015,59.033335 213.016654,59.2 215.55,59.2 C217.016674,59.2 218.283328,59.1166675 219.35,58.95 C220.416672,58.7833325 221.116665,58.533335 221.45,58.2 C222.11667,57.53333 222.45,57.5166635 222.45,58.15 C222.45,58.7833365 222.250002,59.633328 221.85,60.7 C221.449998,61.766672 220.883337,62.8499945 220.15,63.95 C219.416663,65.0500055 218.650004,65.699999 217.85,65.9 C217.249997,66.033334 216.516671,66.1 215.65,66.1 C214.783329,66.1 213.850005,66.0166675 212.85,65.85 C211.849995,65.6833325 210.783339,65.500001 209.65,65.3 C208.516661,65.099999 207.416672,64.866668 206.35,64.6 C203.816654,63.999997 201.116681,63.266671 198.25,62.4 Z" id="Path"></path>
                <path d="M140.55,28.8 C140.750001,27.933329 141.249996,27.5166665 142.05,27.55 C142.850004,27.5833335 143.683329,27.866664 144.55,28.4 C145.416671,28.933336 146.149997,29.599996 146.75,30.4 C147.350003,31.200004 147.550001,31.899997 147.35,32.5 C147.016665,33.633339 146.116674,35.7499845 144.65,38.85 C143.183326,41.9500155 140.983348,45.899976 138.05,50.7 C140.983348,47.033315 143.816653,43.633349 146.55,40.5 C147.750006,39.233327 148.96666,37.93334 150.2,36.6 C151.433339,35.26666 152.649994,34.0500055 153.85,32.95 C155.050006,31.8499945 156.199994,30.900004 157.3,30.1 C158.400005,29.299996 159.416662,28.733335 160.35,28.4 C161.216671,28.133332 162.133328,28.166665 163.1,28.5 C164.066671,28.833335 164.933329,29.3166635 165.7,29.95 C166.46667,30.5833365 167.083331,31.2833295 167.55,32.05 C168.016669,32.8166705 168.216667,33.433331 168.15,33.9 C168.083333,34.233335 167.783336,34.9833275 167.25,36.15 C166.716664,37.3166725 166.083337,38.6833255 165.35,40.25 C164.616663,41.8166745 163.833337,43.499991 163,45.3 C162.166662,47.100009 161.383337,48.8166585 160.65,50.45 C159.916663,52.0833415 159.316669,53.5166605 158.85,54.75 C158.383331,55.9833395 158.15,56.799998 158.15,57.2 C158.15,57.933337 158.666661,57.933337 159.7,57.2 C160.733338,56.466663 162.016659,55.3166745 163.55,53.75 C165.083341,52.1833255 166.766657,50.333344 168.6,48.2 C170.433342,46.066656 172.166658,43.9833435 173.8,41.95 C175.433341,39.9166565 176.849994,38.066675 178.05,36.4 C179.250006,34.733325 179.983332,33.533337 180.25,32.8 C180.450001,32.333331 180.683332,32.1166665 180.95,32.15 C181.216668,32.1833335 181.483332,32.3833315 181.75,32.75 C182.016668,33.1166685 182.216666,33.5499975 182.35,34.05 C182.483334,34.5500025 182.483334,35.033331 182.35,35.5 C182.149999,36.16667 181.566671,37.2499925 180.6,38.75 C179.633328,40.2500075 178.43334,41.9499905 177,43.85 C175.566659,45.7500095 173.950009,47.766656 172.15,49.9 C170.349991,52.033344 168.533342,54.066657 166.7,56 C164.866657,57.933343 163.083342,59.666659 161.35,61.2 C159.616658,62.733341 158.08334,63.83333 156.75,64.5 C156.016663,64.900002 155.150005,65.0500005 154.15,64.95 C153.149995,64.8499995 152.216671,64.5833355 151.35,64.15 C150.483329,63.7166645 149.800002,63.133337 149.3,62.4 C148.799997,61.666663 148.649999,60.800005 148.85,59.8 C149.050001,58.933329 149.449997,57.7166745 150.05,56.15 C150.650003,54.5833255 151.333329,52.866676 152.1,51 C152.86667,49.133324 153.666662,47.2500095 154.5,45.35 C155.333337,43.4499905 156.066663,41.733341 156.7,40.2 C157.333336,38.666659 157.816665,37.4500045 158.15,36.55 C158.483335,35.6499955 158.550001,35.233333 158.35,35.3 C157.883331,35.500001 157.066672,36.0833285 155.9,37.05 C154.733327,38.0166715 153.366674,39.2499925 151.8,40.75 C150.233325,42.2500075 148.550009,43.99999 146.75,46 C144.949991,48.00001 143.200008,50.1166555 141.5,52.35 C139.799991,54.5833445 138.200007,56.8833215 136.7,59.25 C135.199992,61.6166785 133.983338,63.933322 133.05,66.2 C132.849999,66.733336 132.316671,66.933334 131.45,66.8 C130.583329,66.666666 129.700004,66.333336 128.8,65.8 C127.899995,65.266664 127.11667,64.5833375 126.45,63.75 C125.78333,62.9166625 125.516666,62.033338 125.65,61.1 C125.783334,60.499997 126.216663,59.366675 126.95,57.7 C127.683337,56.033325 128.583328,54.100011 129.65,51.9 C130.716672,49.699989 131.849994,47.3500125 133.05,44.85 C134.250006,42.3499875 135.383328,40.000011 136.45,37.8 C137.516672,35.599989 138.433329,33.6833415 139.2,32.05 C139.96667,30.4166585 140.416666,29.333336 140.55,28.8 Z" id="Path"></path>
                <path d="M108.35,27.6 C110.016675,27.666667 111.716658,28.1833285 113.45,29.15 C115.183342,30.1166715 116.649994,31.133328 117.85,32.2 L119.35,30.3 C119.816669,29.833331 120.533328,29.6833325 121.5,29.85 C122.466671,30.0166675 123.399995,30.3833305 124.3,30.95 C125.200004,31.5166695 125.93333,32.1833295 126.5,32.95 C127.066669,33.7166705 127.150002,34.43333 126.75,35.1 C126.483332,35.500002 126.050003,36.299994 125.45,37.5 C124.849997,38.700006 124.150004,40.0833255 123.35,41.65 C122.549996,43.2166745 121.733337,44.8833245 120.9,46.65 C120.066662,48.4166755 119.31667,50.0833255 118.65,51.65 C117.98333,53.2166745 117.450002,54.599994 117.05,55.8 C116.649998,57.000006 116.516666,57.766665 116.65,58.1 C116.850001,58.633336 117.516661,58.466671 118.65,57.6 C119.783339,56.733329 121.149992,55.466675 122.75,53.8 C124.350008,52.133325 126.083324,50.233344 127.95,48.1 C129.816676,45.966656 131.566658,43.8833435 133.2,41.85 C134.833341,39.8166565 136.249994,38.033341 137.45,36.5 C138.650006,34.966659 137.850007,41.7833245 136.45,43.55 C135.049993,45.3166755 133.533341,47.1833235 131.9,49.15 C130.266658,51.1166765 128.583342,53.0166575 126.85,54.85 C125.116658,56.6833425 123.450008,58.366659 121.85,59.9 C120.249992,61.433341 118.816673,62.599996 117.55,63.4 C116.616662,64.000003 115.616672,64.3 114.55,64.3 C113.616662,64.3 112.683338,64.1166685 111.75,63.75 C110.816662,63.3833315 110.000003,62.933336 109.3,62.4 C108.599996,61.866664 108.033335,61.2833365 107.6,60.65 C107.166664,60.0166635 106.983333,59.400003 107.05,58.8 C107.183334,57.933329 107.53333,56.7500075 108.1,55.25 C108.666669,53.7499925 109.299996,52.266674 110,50.8 C110.700003,49.333326 111.349997,48.000006 111.95,46.8 L113.15,44.4 C112.949999,44.733335 112.46667,45.399995 111.7,46.4 C110.933329,47.400005 110.000005,48.56666 108.9,49.9 C107.799994,51.23334 106.566673,52.666659 105.2,54.2 C103.833326,55.733341 102.450007,57.1833265 101.05,58.55 C99.649993,59.9166735 98.250007,61.1166615 96.85,62.15 C95.449993,63.1833385 94.183339,63.866665 93.05,64.2 C92.316663,64.400001 91.5333375,64.400001 90.7,64.2 C89.8666625,63.999999 89.0666705,63.6500025 88.3,63.15 C87.5333295,62.6499975 86.916669,62.0166705 86.45,61.25 C85.983331,60.4833295 85.783333,59.633338 85.85,58.7 C85.983334,57.099992 86.349997,55.2166775 86.95,53.05 C87.550003,50.8833225 88.3333285,48.6500115 89.3,46.35 C90.2666715,44.0499885 91.41666,41.766678 92.75,39.5 C94.08334,37.233322 95.549992,35.2166755 97.15,33.45 C98.750008,31.6833245 100.49999,30.266672 102.4,29.2 C104.300009,28.133328 106.283323,27.6 108.35,27.6 Z M94.75,57.2 C95.150002,57.400001 95.816662,57.1500035 96.75,56.45 C97.683338,55.7499965 98.7666605,54.7833395 100,53.55 C101.233339,52.3166605 102.566659,50.866675 104,49.2 C105.43334,47.533325 106.866659,45.8166755 108.3,44.05 C109.73334,42.2833245 111.11666,40.5500085 112.45,38.85 C113.78334,37.1499915 114.983328,35.63334 116.05,34.3 C115.316663,33.833331 114.533337,33.4166685 113.7,33.05 C112.866662,32.6833315 111.983338,32.5 111.05,32.5 C109.916661,32.5 108.850005,32.866663 107.85,33.6 C106.049991,34.93334 104.283342,36.866654 102.55,39.4 C100.816658,41.933346 99.316673,44.499987 98.05,47.1 C96.783327,49.700013 95.81667,51.9833235 95.15,53.95 C94.48333,55.9166765 94.349998,56.999999 94.75,57.2 Z" id="Combined-Shape"></path>
                <path d="M67.95,83.4 C68.416669,84.333338 68.283337,84.933332 67.55,85.2 C66.816663,85.466668 65.9333385,85.433335 64.9,85.1 C63.8666615,84.766665 62.850005,84.1833375 61.85,83.35 C60.849995,82.5166625 60.316667,81.500006 60.25,80.3 C60.183333,79.699997 60.416664,78.633341 60.95,77.1 C61.483336,75.566659 62.1999955,73.7500105 63.1,71.65 C64.0000045,69.5499895 65.016661,67.2833455 66.15,64.85 C67.283339,62.4166545 68.449994,59.966679 69.65,57.5 C72.450014,51.766638 75.683315,45.433368 79.35,38.5 C75.949983,43.100023 72.650016,47.299981 69.45,51.1 C68.11666,52.700008 66.7333405,54.3166585 65.3,55.95 C63.8666595,57.5833415 62.5000065,59.099993 61.2,60.5 C59.8999935,61.900007 58.6666725,63.133328 57.5,64.2 C56.3333275,65.266672 55.350004,66.033331 54.55,66.5 C53.949997,66.833335 53.1666715,66.9500005 52.2,66.85 C51.2333285,66.7499995 50.3000045,66.4500025 49.4,65.95 C48.4999955,65.4499975 47.750003,64.766671 47.15,63.9 C46.549997,63.033329 46.283333,62.033339 46.35,60.9 C46.416667,59.833328 46.749997,58.400009 47.35,56.6 C47.950003,54.799991 48.6999955,52.833344 49.6,50.7 C50.5000045,48.566656 51.4666615,46.3500115 52.5,44.05 C53.5333385,41.7499885 54.516662,39.60001 55.45,37.6 C56.383338,35.59999 57.1666635,33.8166745 57.8,32.25 C58.4333365,30.6833255 58.816666,29.56667 58.95,28.9 C59.016667,28.366664 59.3999965,28.1166665 60.1,28.15 C60.8000035,28.1833335 61.5666625,28.4166645 62.4,28.85 C63.2333375,29.2833355 64.016663,29.866663 64.75,30.6 C65.483337,31.333337 65.916666,32.133329 66.05,33 C66.116667,33.600003 65.883336,34.633326 65.35,36.1 C64.816664,37.566674 64.1333375,39.2166575 63.3,41.05 C62.4666625,42.8833425 61.5666715,44.79999 60.6,46.8 C59.6333285,48.80001 58.7666705,50.6499915 58,52.35 C57.2333295,54.0500085 56.6333355,55.466661 56.2,56.6 C55.7666645,57.733339 55.716665,58.366666 56.05,58.5 C56.583336,58.766668 57.583326,58.23334 59.05,56.9 C60.516674,55.56666 62.183324,53.833344 64.05,51.7 C65.916676,49.566656 67.8999895,47.1833465 70,44.55 C72.1000105,41.9166535 74.049991,39.4166785 75.85,37.05 C77.650009,34.6833215 79.2333265,32.6166755 80.6,30.85 C81.9666735,29.0833245 82.849998,27.966669 83.25,27.5 C83.783336,27.033331 84.549995,26.9166655 85.55,27.15 C86.550005,27.3833345 87.4999955,27.8166635 88.4,28.45 C89.3000045,29.0833365 90.049997,29.833329 90.65,30.7 C91.250003,31.566671 91.416668,32.33333 91.15,33 C91.016666,33.333335 90.550004,34.2499925 89.75,35.75 C88.949996,37.2500075 87.950006,39.1499885 86.75,41.45 C85.549994,43.7500115 84.216674,46.299986 82.75,49.1 C81.283326,51.900014 79.816674,54.766652 78.35,57.7 C76.883326,60.633348 75.4666735,63.533319 74.1,66.4 C72.7333265,69.266681 71.550005,71.866655 70.55,74.2 C69.549995,76.533345 68.8000025,78.533325 68.3,80.2 C67.7999975,81.866675 67.683332,82.933331 67.95,83.4 Z" id="Path"></path>
                <path d="M5.45,5.4 C5.916669,5.666668 6.7999935,5.766667 8.1,5.7 C9.4000065,5.633333 10.9999905,5.4833345 12.9,5.25 C14.8000095,5.0166655 16.8999885,4.7500015 19.2,4.45 C21.5000115,4.1499985 26.45,3.6 26.45,3.6 L31.45,3.2 C31.45,3.2 33.2999955,3.0833335 34.2,3.05 C35.1000045,3.0166665 35.983329,3 36.85,3 C39.450013,3 41.8666555,3.166665 44.1,3.5 C46.3333445,3.833335 48.283325,4.433329 49.95,5.3 C53.483351,7.166676 55.25,9.699984 55.25,12.9 C55.25,14.500008 54.8333375,16.2166575 54,18.05 C53.1666625,19.8833425 51.983341,21.766657 50.45,23.7 C48.849992,25.766677 47.05001,27.633325 45.05,29.3 C43.04999,30.966675 41.0333435,32.433327 39,33.7 C36.9666565,34.966673 34.9666765,36.033329 33,36.9 C31.0333235,37.766671 29.283341,38.433331 27.75,38.9 C28.016668,40.833343 28.7999935,43.2166525 30.1,46.05 C31.4000065,48.8833475 32.8999915,51.599987 34.6,54.2 C36.3000085,56.800013 38.0333245,58.966658 39.8,60.7 C41.5666755,62.433342 43.11666,63.133335 44.45,62.8 C45.250004,62.599999 45.7333325,62.633332 45.9,62.9 C46.0666675,63.166668 45.983335,63.566664 45.65,64.1 C45.383332,64.500002 44.950003,64.9499975 44.35,65.45 C43.749997,65.9500025 43.0333375,66.399998 42.2,66.8 C41.3666625,67.200002 40.4333385,67.499999 39.4,67.7 C38.3666615,67.900001 37.283339,67.933334 36.15,67.8 C35.083328,67.666666 33.9333395,66.9833395 32.7,65.75 C31.4666605,64.5166605 30.250006,62.9500095 29.05,61.05 C27.849994,59.1499905 26.7000055,57.0500115 25.6,54.75 C24.4999945,52.4499885 23.5666705,50.200011 22.8,48 C22.0333295,45.799989 21.4333355,43.7833425 21,41.95 C20.5666645,40.1166575 20.416666,38.700005 20.55,37.7 C20.55,37.366665 20.683332,36.933336 20.95,36.4 L20.75,35.8 C19.216659,39.200017 17.7000075,42.5166505 16.2,45.75 C14.6999925,48.9833495 13.3666725,51.9166535 12.2,54.55 C11.0333275,57.1833465 10.083337,59.399991 9.35,61.2 C8.616663,63.000009 8.25,64.133331 8.25,64.6 C8.183333,65.333337 7.716671,65.6833335 6.85,65.65 C5.983329,65.6166665 5.0666715,65.300003 4.1,64.7 C3.1333285,64.099997 2.283337,63.266672 1.55,62.2 C0.816663,61.133328 0.616665,59.93334 0.95,58.6 C1.083334,57.999997 1.5666625,56.766676 2.4,54.9 C3.2333375,53.033324 4.2666605,50.76668 5.5,48.1 C6.7333395,45.43332 8.116659,42.5166825 9.65,39.35 C11.183341,36.1833175 12.749992,32.966683 14.35,29.7 C15.950008,26.433317 17.4999925,23.233349 19,20.1 C20.5000075,16.966651 21.816661,14.166679 22.95,11.7 C19.61665,12.766672 16.6000135,13.6499965 13.9,14.35 C11.1999865,15.0500035 9.216673,15.200002 7.95,14.8 C7.083329,14.533332 6.3666695,13.833339 5.8,12.7 C5.2333305,11.566661 4.8333345,10.400006 4.6,9.2 C4.3666655,7.999994 4.316666,6.9833375 4.45,6.15 C4.583334,5.3166625 4.916664,5.066665 5.45,5.4 Z M22.65,31.7 C23.583338,31.766667 24.949991,31.4500035 26.75,30.75 C28.550009,30.0499965 30.483323,29.1166725 32.55,27.95 C34.616677,26.7833275 36.6333235,25.4500075 38.6,23.95 C40.5666765,22.4499925 42.183327,20.933341 43.45,19.4 C44.650006,17.933326 45.683329,16.4500075 46.55,14.95 C47.416671,13.4499925 47.85,12.100006 47.85,10.9 C47.85,10.033329 47.583336,9.300003 47.05,8.7 C46.516664,8.099997 45.58334,7.666668 44.25,7.4 C42.91666,7.133332 41.316676,7.1499985 39.45,7.45 C37.583324,7.7500015 35.550011,8.166664 33.35,8.7 C32.949998,9.633338 32.383337,10.8833255 31.65,12.45 C30.916663,14.0166745 30.083338,15.8166565 29.15,17.85 C28.216662,19.8833435 27.2000055,22.0833215 26.1,24.45 C24.9999945,26.8166785 23.850006,29.233321 22.65,31.7 Z" id="Combined-Shape"></path>
            </g>
        </g>
    </g>
</svg>