<?xml version="1.0" standalone="no"?>
<!DOCTYPE svg PUBLIC "-//W3C//DTD SVG 20010904//EN"
 "http://www.w3.org/TR/2001/REC-SVG-20010904/DTD/svg10.dtd">
<svg version="1.0" xmlns="http://www.w3.org/2000/svg"
 width="16.000000pt" height="16.000000pt" viewBox="0 0 16.000000 16.000000"
 preserveAspectRatio="xMidYMid meet">
<metadata>
Created by potrace 1.11, written by Peter Selinger 2001-2013
</metadata>
<g transform="translate(0.000000,16.000000) scale(0.002241,-0.002241)"
fill="#000000" stroke="none">
<path d="M4208 7135 c-2 -2 -61 -6 -133 -10 -71 -4 -141 -8 -155 -10 -14 -1
-70 -6 -125 -9 -55 -4 -116 -9 -135 -11 -19 -2 -71 -7 -115 -10 -150 -11 -200
-15 -235 -20 -42 -6 -96 -12 -170 -20 -30 -3 -89 -10 -130 -15 -41 -5 -95 -12
-120 -15 -98 -11 -146 -16 -168 -20 -12 -1 -50 -6 -85 -10 -34 -3 -73 -8 -87
-10 -14 -2 -45 -7 -69 -10 -23 -3 -55 -7 -70 -9 -14 -3 -53 -8 -86 -11 -33 -3
-76 -8 -95 -11 -19 -3 -46 -7 -60 -9 -14 -2 -52 -7 -85 -11 -33 -3 -68 -8 -77
-10 -9 -1 -48 -6 -85 -9 -37 -4 -77 -9 -88 -11 -10 -2 -51 -6 -90 -10 -38 -3
-78 -8 -88 -10 -49 -9 -246 -19 -367 -18 -115 0 -143 4 -188 22 -78 32 -89 30
-113 -25 -17 -39 -21 -69 -21 -159 0 -61 2 -119 5 -130 3 -10 9 -39 12 -64 20
-153 107 -385 187 -501 86 -124 189 -172 368 -171 200 1 413 46 915 194 55 16
123 36 150 43 28 8 129 39 225 69 96 30 175 54 176 53 1 -1 -5 -18 -15 -37 -9
-19 -29 -64 -45 -100 -29 -65 -74 -160 -192 -409 -35 -73 -64 -135 -64 -137 0
-1 -43 -92 -96 -201 -53 -109 -113 -234 -134 -278 -41 -87 -157 -327 -320
-660 -56 -115 -148 -302 -203 -415 -319 -655 -553 -1138 -607 -1255 -15 -33
-52 -112 -82 -175 -49 -101 -173 -368 -268 -575 -27 -60 -95 -208 -203 -445
-13 -30 -39 -89 -57 -130 -17 -41 -40 -93 -49 -115 -72 -162 -101 -272 -97
-375 4 -114 21 -165 87 -262 146 -214 393 -370 586 -369 93 0 136 39 147 132
7 62 70 240 166 469 45 107 100 240 123 295 23 55 45 102 48 105 3 3 10 16 14
30 4 14 19 50 32 80 14 30 70 156 125 280 56 124 115 257 133 295 44 94 87
188 118 255 31 68 73 160 122 265 20 44 71 154 112 245 42 91 95 207 119 258
24 52 44 96 44 98 0 2 20 45 44 96 24 51 54 116 66 143 55 122 68 153 86 193
l18 43 14 -27 c12 -23 11 -33 -9 -87 -19 -49 -23 -83 -24 -162 0 -93 7 -185
20 -245 2 -14 10 -50 16 -80 57 -285 227 -811 371 -1145 138 -323 299 -643
446 -890 58 -98 183 -293 204 -320 5 -5 38 -48 74 -95 199 -260 372 -409 527
-455 70 -21 327 -20 437 1 226 43 441 154 595 307 160 161 151 269 -21 235
-157 -31 -255 -5 -413 111 -121 88 -305 283 -475 506 -464 605 -915 1514 -980
1976 l-5 35 62 19 c70 21 343 125 457 175 727 314 1446 835 1892 1370 342 410
538 774 602 1114 14 79 16 288 2 351 -51 238 -198 436 -442 596 -58 39 -191
107 -289 150 -120 51 -381 114 -561 134 -28 3 -59 7 -70 9 -10 2 -57 7 -104
11 -47 3 -101 9 -120 11 -39 6 -757 14 -762 9z m1087 -469 c171 -23 319 -88
384 -168 77 -96 94 -249 46 -413 -46 -157 -158 -355 -334 -593 -182 -246 -325
-394 -571 -593 -229 -184 -486 -356 -810 -541 -117 -67 -381 -194 -515 -248
-111 -45 -115 -46 -162 -64 -114 -42 -330 -83 -347 -65 -2 2 25 65 61 139 95
198 156 326 193 405 18 39 57 122 87 185 30 63 77 165 105 225 28 61 72 157
99 214 27 57 49 105 49 107 0 2 22 50 49 106 26 57 70 150 96 208 55 121 87
191 161 349 30 62 54 114 54 116 0 2 24 54 54 117 67 142 116 249 147 326 10
24 23 35 49 42 93 25 399 88 560 116 19 3 60 10 90 15 30 5 89 12 130 15 41 4
76 8 78 9 5 4 200 -3 247 -9z"/>
</g>
</svg>
