<svg width="321" height="86" viewBox="0 0 321 86" xmlns="http://www.w3.org/2000/svg"><title>RyanLuuLogo</title><g fill="#FFF" fill-rule="evenodd"><path d="M298.65 30.1c.4-.6 1.067-.833 2-.7s1.817.45 2.65.95c.833.5 1.533 1.15 2.1 1.95.567.8.717 1.533.45 2.2-.2.467-.583 1.3-1.15 2.5s-1.233 2.617-2 4.25c-.767 1.633-1.55 3.35-2.35 5.15-.8 1.8-1.55 3.483-2.25 5.05a61.89 61.89 0 0 0-1.7 4.15c-.433 1.2-.65 2-.65 2.4 0 .4.483.233 1.45-.5s2.167-1.817 3.6-3.25a192.87 192.87 0 0 0 4.8-5c1.767-1.9 3.483-3.85 5.15-5.85 1.667-2 3.183-3.917 4.55-5.75 1.367-1.833 2.383-3.383 3.05-4.65.2-.333.45-.483.75-.45.3.033.567.2.8.5.233.3.4.75.5 1.35.1.6.017 1.267-.25 2-.133.533-.65 1.433-1.55 2.7a128.461 128.461 0 0 1-7.85 9.85 423.109 423.109 0 0 1-5 5.6 148.247 148.247 0 0 1-4.85 5.1c-1.567 1.567-2.95 2.85-4.15 3.85-.933.8-2.033 1.2-3.3 1.2-.933 0-1.883-.183-2.85-.55a9.862 9.862 0 0 1-2.6-1.45c-.767-.6-1.383-1.267-1.85-2-.467-.733-.633-1.433-.5-2.1.067-.467.383-1.45.95-2.95.567-1.5 1.317-3.25 2.25-5.25-1.8 2.667-4.083 5.45-6.85 8.35-2.767 2.9-5.95 5.35-9.55 7.35-.6.333-1.367.4-2.3.2-.933-.2-1.833-.6-2.7-1.2a8.6 8.6 0 0 1-2.15-2.1c-.567-.8-.817-1.633-.75-2.5.067-1.067.417-2.533 1.05-4.4a135.8 135.8 0 0 1 2.25-6.1c.867-2.2 1.817-4.45 2.85-6.75a339.34 339.34 0 0 1 2.95-6.4 187.26 187.26 0 0 1 2.45-5c.7-1.367 1.15-2.217 1.35-2.55.333-.467.95-.617 1.85-.45.9.167 1.8.483 2.7.95.9.467 1.65 1 2.25 1.6.6.6.767 1.133.5 1.6-.267.4-.767 1.3-1.5 2.7-.733 1.4-1.567 3.05-2.5 4.95-.933 1.9-1.883 3.9-2.85 6-.967 2.1-1.8 4.05-2.5 5.85-.7 1.8-1.233 3.317-1.6 4.55-.367 1.233-.383 1.917-.05 2.05.533.267 1.35.017 2.45-.75s2.333-1.833 3.7-3.2c1.367-1.367 2.817-2.9 4.35-4.6a117.534 117.534 0 0 0 7.85-9.7c1.033-1.433 1.783-2.517 2.25-3.25 1.267-2.2 2.233-3.917 2.9-5.15.667-1.233 1.133-2.017 1.4-2.35z"/><path d="M256.75 30.1c.4-.6 1.067-.833 2-.7s1.817.45 2.65.95c.833.5 1.533 1.15 2.1 1.95.567.8.717 1.533.45 2.2-.2.467-.583 1.3-1.15 2.5s-1.233 2.617-2 4.25c-.767 1.633-1.55 3.35-2.35 5.15-.8 1.8-1.55 3.483-2.25 5.05a61.888 61.888 0 0 0-1.7 4.15c-.433 1.2-.65 2-.65 2.4 0 .4.483.233 1.45-.5s2.167-1.817 3.6-3.25c1.433-1.433 3.033-3.1 4.8-5s3.483-3.85 5.15-5.85c1.667-2 3.183-3.917 4.55-5.75 1.367-1.833 2.383-3.383 3.05-4.65.2-.333.45-.483.75-.45.3.033.567.2.8.5.233.3.4.75.5 1.35.1.6.017 1.267-.25 2-.133.533-.65 1.433-1.55 2.7a128.461 128.461 0 0 1-7.85 9.85 423.109 423.109 0 0 1-5 5.6 148.247 148.247 0 0 1-4.85 5.1c-1.567 1.567-2.95 2.85-4.15 3.85-.933.8-2.033 1.2-3.3 1.2-.933 0-1.883-.183-2.85-.55a9.862 9.862 0 0 1-2.6-1.45c-.767-.6-1.383-1.267-1.85-2-.467-.733-.633-1.433-.5-2.1.067-.467.383-1.45.95-2.95.567-1.5 1.317-3.25 2.25-5.25-1.8 2.667-4.083 5.45-6.85 8.35-2.767 2.9-5.95 5.35-9.55 7.35-.6.333-1.367.4-2.3.2-.933-.2-1.833-.6-2.7-1.2a8.6 8.6 0 0 1-2.15-2.1c-.567-.8-.817-1.633-.75-2.5.067-1.067.417-2.533 1.05-4.4a135.8 135.8 0 0 1 2.25-6.1c.867-2.2 1.817-4.45 2.85-6.75 1.033-2.3 2.017-4.433 2.95-6.4a187.26 187.26 0 0 1 2.45-5c.7-1.367 1.15-2.217 1.35-2.55.333-.467.95-.617 1.85-.45.9.167 1.8.483 2.7.95.9.467 1.65 1 2.25 1.6.6.6.767 1.133.5 1.6-.267.4-.767 1.3-1.5 2.7-.733 1.4-1.567 3.05-2.5 4.95-.933 1.9-1.883 3.9-2.85 6-.967 2.1-1.8 4.05-2.5 5.85-.7 1.8-1.233 3.317-1.6 4.55-.367 1.233-.383 1.917-.05 2.05.533.267 1.35.017 2.45-.75s2.333-1.833 3.7-3.2c1.367-1.367 2.817-2.9 4.35-4.6a117.534 117.534 0 0 0 7.85-9.7c1.033-1.433 1.783-2.517 2.25-3.25 1.267-2.2 2.233-3.917 2.9-5.15.667-1.233 1.133-2.017 1.4-2.35zm-58.5 32.3c-.533 1-1.033 1.9-1.5 2.7a57.41 57.41 0 0 1-1.4 2.1c-.467.667-.967 1.133-1.5 1.4-.6.333-1.367.183-2.3-.45-.933-.633-1.85-1.5-2.75-2.6-.9-1.1-1.683-2.283-2.35-3.55s-1.067-2.367-1.2-3.3c-.133-1.333-.033-2.25.3-2.75.333-.5 1-.75 2-.75.733 0 1.867.167 3.4.5 1.067-2.133 2.167-4.75 3.3-7.85 1.133-3.1 2.317-6.4 3.55-9.9 1.233-3.5 2.517-7.067 3.85-10.7a170.63 170.63 0 0 1 4.1-10.2c1.4-3.167 2.85-5.983 4.35-8.45 1.5-2.467 3.017-4.3 4.55-5.5 1.133-.867 2.267-1.467 3.4-1.8a12.01 12.01 0 0 1 3.4-.5c1.4 0 2.75.217 4.05.65 1.3.433 2.5 1 3.6 1.7S227.05 6 226.65 5.8c-1.4-.667-2.9-.267-4.5 1.2s-3.2 3.65-4.8 6.55c-1.6 2.9-3.2 6.283-4.8 10.15a402.769 402.769 0 0 0-4.7 11.9c-1.533 4.067-3 8.033-4.4 11.9a376.583 376.583 0 0 1-3.8 10.1c2.067.4 4.6.767 7.6 1.1 3 .333 5.767.5 8.3.5 1.467 0 2.733-.083 3.8-.25 1.067-.167 1.767-.417 2.1-.75.667-.667 1-.683 1-.05s-.2 1.483-.6 2.55c-.4 1.067-.967 2.15-1.7 3.25s-1.5 1.75-2.3 1.95c-.6.133-1.333.2-2.2.2-.867 0-1.8-.083-2.8-.25-1-.167-2.067-.35-3.2-.55a47.995 47.995 0 0 1-3.3-.7 138.02 138.02 0 0 1-8.1-2.2zm-57.7-33.6c.2-.867.7-1.283 1.5-1.25.8.033 1.633.317 2.5.85.867.533 1.6 1.2 2.2 2 .6.8.8 1.5.6 2.1-.333 1.133-1.233 3.25-2.7 6.35-1.467 3.1-3.667 7.05-6.6 11.85a312.67 312.67 0 0 1 8.5-10.2c1.2-1.267 2.417-2.567 3.65-3.9a62.782 62.782 0 0 1 3.65-3.65c1.2-1.1 2.35-2.05 3.45-2.85 1.1-.8 2.117-1.367 3.05-1.7.867-.267 1.783-.233 2.75.1a8.286 8.286 0 0 1 2.6 1.45 8.388 8.388 0 0 1 1.85 2.1c.467.767.667 1.383.6 1.85-.067.333-.367 1.083-.9 2.25a509.817 509.817 0 0 1-1.9 4.1A1327.67 1327.67 0 0 0 163 45.3c-.833 1.8-1.617 3.517-2.35 5.15a78.698 78.698 0 0 0-1.8 4.3c-.467 1.233-.7 2.05-.7 2.45 0 .733.517.733 1.55 0s2.317-1.883 3.85-3.45c1.533-1.567 3.217-3.417 5.05-5.55a245.335 245.335 0 0 0 5.2-6.25 134.028 134.028 0 0 0 4.25-5.55c1.2-1.667 1.933-2.867 2.2-3.6.2-.467.433-.683.7-.65.267.033.533.233.8.6s.467.8.6 1.3c.133.5.133.983 0 1.45-.2.667-.783 1.75-1.75 3.25s-2.167 3.2-3.6 5.1a142.81 142.81 0 0 1-4.85 6.05 141.078 141.078 0 0 1-5.45 6.1 85.384 85.384 0 0 1-5.35 5.2c-1.733 1.533-3.267 2.633-4.6 3.3-.733.4-1.6.55-2.6.45a7.99 7.99 0 0 1-2.8-.8c-.867-.433-1.55-1.017-2.05-1.75-.5-.733-.65-1.6-.45-2.6.2-.867.6-2.083 1.2-3.65a259.898 259.898 0 0 1 4.45-10.8 262.2 262.2 0 0 0 2.2-5.15 111.97 111.97 0 0 0 1.45-3.65c.333-.9.4-1.317.2-1.25-.467.2-1.283.783-2.45 1.75-1.167.967-2.533 2.2-4.1 3.7-1.567 1.5-3.25 3.25-5.05 5.25a100.267 100.267 0 0 0-10.05 13.25c-1.5 2.367-2.717 4.683-3.65 6.95-.2.533-.733.733-1.6.6-.867-.133-1.75-.467-2.65-1a8.614 8.614 0 0 1-2.35-2.05c-.667-.833-.933-1.717-.8-2.65.133-.6.567-1.733 1.3-3.4.733-1.667 1.633-3.6 2.7-5.8 1.067-2.2 2.2-4.55 3.4-7.05 1.2-2.5 2.333-4.85 3.4-7.05 1.067-2.2 1.983-4.117 2.75-5.75.767-1.633 1.217-2.717 1.35-3.25z"/><path d="M108.35 27.6c1.667.067 3.367.583 5.1 1.55 1.733.967 3.2 1.983 4.4 3.05l1.5-1.9c.467-.467 1.183-.617 2.15-.45.967.167 1.9.533 2.8 1.1.9.567 1.633 1.233 2.2 2 .567.767.65 1.483.25 2.15-.267.4-.7 1.2-1.3 2.4-.6 1.2-1.3 2.583-2.1 4.15-.8 1.567-1.617 3.233-2.45 5a143.174 143.174 0 0 0-2.25 5 56.116 56.116 0 0 0-1.6 4.15c-.4 1.2-.533 1.967-.4 2.3.2.533.867.367 2-.5s2.5-2.133 4.1-3.8a169.45 169.45 0 0 0 5.2-5.7 194.159 194.159 0 0 0 5.25-6.25 547.083 547.083 0 0 0 4.25-5.35c1.2-1.533.4 5.283-1 7.05a315.374 315.374 0 0 1-4.55 5.6 118.428 118.428 0 0 1-5.05 5.7 144.586 144.586 0 0 1-5 5.05c-1.6 1.533-3.033 2.7-4.3 3.5-.933.6-1.933.9-3 .9a7.609 7.609 0 0 1-2.8-.55c-.933-.367-1.75-.817-2.45-1.35-.7-.533-1.267-1.117-1.7-1.75-.433-.633-.617-1.25-.55-1.85.133-.867.483-2.05 1.05-3.55a57.53 57.53 0 0 1 1.9-4.45c.7-1.467 1.35-2.8 1.95-4l1.2-2.4c-.2.333-.683 1-1.45 2-.767 1-1.7 2.167-2.8 3.5a149.367 149.367 0 0 1-3.7 4.3 86.59 86.59 0 0 1-4.15 4.35 40.315 40.315 0 0 1-4.2 3.6c-1.4 1.033-2.667 1.717-3.8 2.05-.733.2-1.517.2-2.35 0a7.64 7.64 0 0 1-2.4-1.05 5.921 5.921 0 0 1-1.85-1.9c-.467-.767-.667-1.617-.6-2.55.133-1.6.5-3.483 1.1-5.65.6-2.167 1.383-4.4 2.35-6.7a57.31 57.31 0 0 1 3.45-6.85c1.333-2.267 2.8-4.283 4.4-6.05 1.6-1.767 3.35-3.183 5.25-4.25 1.9-1.067 3.883-1.6 5.95-1.6zm-13.6 29.6c.4.2 1.067-.05 2-.75s2.017-1.667 3.25-2.9a79.444 79.444 0 0 0 4-4.35 234.101 234.101 0 0 0 4.3-5.15 405.64 405.64 0 0 0 4.15-5.2 585.03 585.03 0 0 1 3.6-4.55 17.485 17.485 0 0 0-2.35-1.25 6.507 6.507 0 0 0-2.65-.55c-1.133 0-2.2.367-3.2 1.1-1.8 1.333-3.567 3.267-5.3 5.8a60.803 60.803 0 0 0-4.5 7.7c-1.267 2.6-2.233 4.883-2.9 6.85-.667 1.967-.8 3.05-.4 3.25zm-26.8 26.2c.467.933.333 1.533-.4 1.8-.733.267-1.617.233-2.65-.1s-2.05-.917-3.05-1.75-1.533-1.85-1.6-3.05c-.067-.6.167-1.667.7-3.2.533-1.533 1.25-3.35 2.15-5.45.9-2.1 1.917-4.367 3.05-6.8a481.55 481.55 0 0 1 3.5-7.35c2.8-5.733 6.033-12.067 9.7-19-3.4 4.6-6.7 8.8-9.9 12.6a250.06 250.06 0 0 1-4.15 4.85c-1.433 1.633-2.8 3.15-4.1 4.55a64.417 64.417 0 0 1-3.7 3.7c-1.167 1.067-2.15 1.833-2.95 2.3-.6.333-1.383.45-2.35.35-.967-.1-1.9-.4-2.8-.9-.9-.5-1.65-1.183-2.25-2.05-.6-.867-.867-1.867-.8-3 .067-1.067.4-2.5 1-4.3.6-1.8 1.35-3.767 2.25-5.9.9-2.133 1.867-4.35 2.9-6.65 1.033-2.3 2.017-4.45 2.95-6.45.933-2 1.717-3.783 2.35-5.35.633-1.567 1.017-2.683 1.15-3.35.067-.533.45-.783 1.15-.75.7.033 1.467.267 2.3.7a9.578 9.578 0 0 1 2.35 1.75c.733.733 1.167 1.533 1.3 2.4.067.6-.167 1.633-.7 3.1a69.65 69.65 0 0 1-2.05 4.95 269.67 269.67 0 0 1-2.7 5.75c-.967 2-1.833 3.85-2.6 5.55-.767 1.7-1.367 3.117-1.8 4.25-.433 1.133-.483 1.767-.15 1.9.533.267 1.533-.267 3-1.6 1.467-1.333 3.133-3.067 5-5.2A204.963 204.963 0 0 0 70 44.55c2.1-2.633 4.05-5.133 5.85-7.5 1.8-2.367 3.383-4.433 4.75-6.2 1.367-1.767 2.25-2.883 2.65-3.35.533-.467 1.3-.583 2.3-.35 1 .233 1.95.667 2.85 1.3.9.633 1.65 1.383 2.25 2.25.6.867.767 1.633.5 2.3-.133.333-.6 1.25-1.4 2.75-.8 1.5-1.8 3.4-3 5.7-1.2 2.3-2.533 4.85-4 7.65a515.752 515.752 0 0 0-8.65 17.3 216.377 216.377 0 0 0-3.55 7.8c-1 2.333-1.75 4.333-2.25 6-.5 1.667-.617 2.733-.35 3.2z"/><path d="M5.45 5.4c.467.267 1.35.367 2.65.3 1.3-.067 2.9-.217 4.8-.45s4-.5 6.3-.8c2.3-.3 7.25-.85 7.25-.85l5-.4s1.85-.117 2.75-.15c.9-.033 1.783-.05 2.65-.05 2.6 0 5.017.167 7.25.5 2.233.333 4.183.933 5.85 1.8 3.533 1.867 5.3 4.4 5.3 7.6 0 1.6-.417 3.317-1.25 5.15-.833 1.833-2.017 3.717-3.55 5.65a35.773 35.773 0 0 1-5.4 5.6A54.41 54.41 0 0 1 39 33.7a47.91 47.91 0 0 1-6 3.2c-1.967.867-3.717 1.533-5.25 2 .267 1.933 1.05 4.317 2.35 7.15s2.8 5.55 4.5 8.15c1.7 2.6 3.433 4.767 5.2 6.5 1.767 1.733 3.317 2.433 4.65 2.1.8-.2 1.283-.167 1.45.1.167.267.083.667-.25 1.2-.267.4-.7.85-1.3 1.35-.6.5-1.317.95-2.15 1.35-.833.4-1.767.7-2.8.9a10.54 10.54 0 0 1-3.25.1c-1.067-.133-2.217-.817-3.45-2.05-1.233-1.233-2.45-2.8-3.65-4.7-1.2-1.9-2.35-4-3.45-6.3S23.567 50.2 22.8 48c-.767-2.2-1.367-4.217-1.8-6.05-.433-1.833-.583-3.25-.45-4.25 0-.333.133-.767.4-1.3l-.2-.6c-1.533 3.4-3.05 6.717-4.55 9.95a562.937 562.937 0 0 0-4 8.8 246.818 246.818 0 0 0-2.85 6.65c-.733 1.8-1.1 2.933-1.1 3.4-.067.733-.533 1.083-1.4 1.05-.867-.033-1.783-.35-2.75-.95-.967-.6-1.817-1.433-2.55-2.5-.733-1.067-.933-2.267-.6-3.6.133-.6.617-1.833 1.45-3.7a575.037 575.037 0 0 1 7.25-15.55c1.533-3.167 3.1-6.383 4.7-9.65 1.6-3.267 3.15-6.467 4.65-9.6a594.62 594.62 0 0 0 3.95-8.4c-3.333 1.067-6.35 1.95-9.05 2.65-2.7.7-4.683.85-5.95.45-.867-.267-1.583-.967-2.15-2.1a13.606 13.606 0 0 1-1.2-3.5c-.233-1.2-.283-2.217-.15-3.05.133-.833.467-1.083 1-.75zm17.2 26.3c.933.067 2.3-.25 4.1-.95 1.8-.7 3.733-1.633 5.8-2.8a52.68 52.68 0 0 0 6.05-4c1.967-1.5 3.583-3.017 4.85-4.55a33.549 33.549 0 0 0 3.1-4.45c.867-1.5 1.3-2.85 1.3-4.05 0-.867-.267-1.6-.8-2.2-.533-.6-1.467-1.033-2.8-1.3-1.333-.267-2.933-.25-4.8.05s-3.9.717-6.1 1.25a133.8 133.8 0 0 1-1.7 3.75 807.113 807.113 0 0 0-2.5 5.4 1532.04 1532.04 0 0 1-3.05 6.6c-1.1 2.367-2.25 4.783-3.45 7.25z"/></g></svg>